<svg width="542" height="427" viewBox="0 0 542 427" fill="none" xmlns="http://www.w3.org/2000/svg">
  <rect opacity="0.4" x="202" y="282" width="101" height="145" rx="20" fill="url(#paint0_linear_76_3)"/>
  <rect opacity="0.1" x="83" y="365" width="101" height="62" rx="20" fill="url(#paint1_linear_76_3)"/>
  <rect opacity="0.6" x="321" y="223" width="102" height="204" rx="20" fill="url(#paint2_linear_76_3)"/>
  <rect x="441" y="115" width="101" height="312" rx="20" fill="url(#paint3_linear_76_3)"/>
  <path d="M9.5 386.5C23.1667 368.5 62.3 330.7 109.5 323.5C168.5 314.5 179.5 235 237 214.5C294.5 194 335 212.5 387 149.5C439 86.5 453 15 502.5 9.5" stroke="#2CB67D" stroke-width="3"/>
  <circle cx="125" cy="320" r="9" fill="#7F5AF0"/>
  <circle cx="9" cy="387" r="9" fill="#7F5AF0"/>
  <circle cx="253" cy="210" r="9" fill="#7F5AF0"/>
  <circle cx="372" cy="166" r="9" fill="#7F5AF0"/>
  <circle cx="501" cy="9" r="9" fill="#7F5AF0"/>
  <defs>
    <linearGradient id="paint0_linear_76_3" x1="252.5" y1="282" x2="252.5" y2="427" gradientUnits="userSpaceOnUse">
      <stop stop-color="#7F5AF0"/>
      <stop offset="1" stop-color="#7F5AF0" stop-opacity="0"/>
    </linearGradient>
    <linearGradient id="paint1_linear_76_3" x1="133.5" y1="365" x2="133.5" y2="427" gradientUnits="userSpaceOnUse">
      <stop stop-color="#7F5AF0"/>
      <stop offset="1" stop-color="#7F5AF0" stop-opacity="0"/>
    </linearGradient>
    <linearGradient id="paint2_linear_76_3" x1="372" y1="223" x2="372" y2="427" gradientUnits="userSpaceOnUse">
      <stop stop-color="#7F5AF0"/>
      <stop offset="1" stop-color="#7F5AF0" stop-opacity="0"/>
    </linearGradient>
    <linearGradient id="paint3_linear_76_3" x1="491.5" y1="115" x2="491.5" y2="427" gradientUnits="userSpaceOnUse">
      <stop stop-color="#7F5AF0"/>
      <stop offset="1" stop-color="#7F5AF0" stop-opacity="0"/>
    </linearGradient>
  </defs>
</svg>
